<svg xmlns="http://www.w3.org/2000/svg" xmlns:xlink="http://www.w3.org/1999/xlink" width="500" zoomAndPan="magnify" viewBox="0 0 375 374.999991" height="500" preserveAspectRatio="xMidYMid meet" version="1.0"><defs><g/></defs><rect x="-37.5" width="450" fill="#ffffff" y="-37.499999" height="449.999989" fill-opacity="1"/><rect x="-37.5" width="450" fill="#ffffff" y="-37.499999" height="449.999989" fill-opacity="1"/><path fill="#000000" d="M 187.5 375 C 84.144531 375 0 290.855469 0 187.5 C 0 84.144531 84.144531 0 187.5 0 C 290.855469 0 375 84.144531 375 187.5 C 375 290.855469 290.855469 375 187.5 375 Z M 187.5 2.769531 C 85.621094 2.769531 2.769531 85.621094 2.769531 187.5 C 2.769531 289.378906 85.621094 372.230469 187.5 372.230469 C 289.378906 372.230469 372.230469 289.378906 372.230469 187.5 C 372.230469 85.621094 289.378906 2.769531 187.5 2.769531 Z M 187.5 2.769531 " fill-opacity="1" fill-rule="nonzero"/><g fill="#000000" fill-opacity="1"><g transform="translate(24.140628, 230.249985)"><g><path d="M 14.84375 -92.515625 C 14.84375 -98.953125 16.394531 -104.300781 19.5 -108.5625 C 22.601562 -112.820312 26.65625 -116.128906 31.65625 -118.484375 C 36.664062 -120.847656 42.160156 -122.285156 48.140625 -122.796875 C 54.128906 -123.316406 60.054688 -123 65.921875 -121.84375 C 71.796875 -120.695312 77.117188 -118.800781 81.890625 -116.15625 C 86.671875 -113.507812 90.269531 -110.171875 92.6875 -106.140625 L 92.6875 -88.015625 C 88.3125 -96.878906 83.242188 -103.785156 77.484375 -108.734375 C 71.734375 -113.679688 65.804688 -117.046875 59.703125 -118.828125 C 53.609375 -120.609375 47.800781 -121.097656 42.28125 -120.296875 C 36.757812 -119.492188 31.984375 -117.710938 27.953125 -114.953125 C 24.617188 -112.765625 22.347656 -110 21.140625 -106.65625 C 19.929688 -103.320312 20.273438 -99.554688 22.171875 -95.359375 C 24.078125 -91.160156 27.90625 -86.703125 33.65625 -81.984375 C 39.40625 -77.265625 47.515625 -72.429688 57.984375 -67.484375 C 64.316406 -64.835938 70.269531 -61.84375 75.84375 -58.5 C 81.425781 -55.164062 85.972656 -51.140625 89.484375 -46.421875 C 92.992188 -41.703125 94.75 -35.953125 94.75 -29.171875 C 94.75 -24.566406 93.859375 -20.453125 92.078125 -16.828125 C 90.296875 -13.203125 87.851562 -10.125 84.75 -7.59375 C 79.800781 -3.800781 73.875 -1.382812 66.96875 -0.34375 C 60.0625 0.6875 52.835938 0.457031 45.296875 -1.03125 C 37.765625 -2.53125 30.546875 -5.265625 23.640625 -9.234375 C 16.742188 -13.203125 10.878906 -18.296875 6.046875 -24.515625 L 6.046875 -48.5 C 10.296875 -37.800781 15.640625 -28.882812 22.078125 -21.75 C 28.523438 -14.613281 35.457031 -9.316406 42.875 -5.859375 C 50.300781 -2.410156 57.550781 -0.914062 64.625 -1.375 C 71.707031 -1.84375 77.953125 -4.375 83.359375 -8.96875 C 86.234375 -11.382812 88.046875 -14.234375 88.796875 -17.515625 C 89.546875 -20.796875 88.851562 -24.445312 86.71875 -28.46875 C 84.59375 -32.5 80.679688 -36.726562 74.984375 -41.15625 C 69.296875 -45.59375 61.445312 -50.113281 51.4375 -54.71875 C 45.21875 -57.476562 39.316406 -60.523438 33.734375 -63.859375 C 28.160156 -67.191406 23.617188 -71.160156 20.109375 -75.765625 C 16.597656 -80.367188 14.84375 -85.953125 14.84375 -92.515625 Z M 14.84375 -92.515625 "/></g></g></g><g fill="#000000" fill-opacity="1"><g transform="translate(124.928566, 230.249985)"><g><path d="M 46.953125 -66.28125 C 43.378906 -66.28125 40.382812 -65.5 37.96875 -63.9375 C 35.550781 -62.382812 33.648438 -60.628906 32.265625 -58.671875 C 30.890625 -56.722656 29.914062 -55.171875 29.34375 -54.015625 C 26.125 -46.648438 23.617188 -38.625 21.828125 -29.9375 C 20.046875 -21.257812 19.15625 -11.28125 19.15625 0 L 6.046875 0 L 6.046875 -121.84375 L 19.15625 -121.84375 L 19.15625 -22.09375 C 20.539062 -32.789062 22.84375 -42.253906 26.0625 -50.484375 C 29.28125 -58.710938 33.304688 -66.363281 38.140625 -73.4375 C 42.972656 -80.507812 48.441406 -87.671875 54.546875 -94.921875 C 54.546875 -94.921875 55.117188 -95.640625 56.265625 -97.078125 C 57.410156 -98.515625 58.734375 -100.328125 60.234375 -102.515625 C 61.734375 -104.703125 63.054688 -107.03125 64.203125 -109.5 C 65.359375 -111.976562 65.960938 -114.335938 66.015625 -116.578125 C 66.078125 -118.828125 65.1875 -120.582031 63.34375 -121.84375 L 92 -121.84375 C 89 -121.269531 85.972656 -120.117188 82.921875 -118.390625 C 79.878906 -116.671875 77.09375 -114.832031 74.5625 -112.875 C 72.03125 -110.914062 69.988281 -109.242188 68.4375 -107.859375 C 66.882812 -106.484375 66.050781 -105.796875 65.9375 -105.796875 C 59.257812 -98.085938 53.128906 -90.78125 47.546875 -83.875 C 41.960938 -76.976562 37.101562 -69.613281 32.96875 -61.78125 C 34.457031 -63.28125 36.351562 -64.632812 38.65625 -65.84375 C 40.957031 -67.050781 43.722656 -67.65625 46.953125 -67.65625 C 53.046875 -67.65625 58.101562 -66.53125 62.125 -64.28125 C 66.15625 -62.039062 69.519531 -59.078125 72.21875 -55.390625 C 74.925781 -51.710938 77.285156 -47.628906 79.296875 -43.140625 C 81.316406 -38.660156 83.304688 -34.175781 85.265625 -29.6875 C 87.566406 -24.625 89.835938 -19.929688 92.078125 -15.609375 C 94.316406 -11.296875 96.875 -7.84375 99.75 -5.25 C 102.632812 -2.664062 106.085938 -1.375 110.109375 -1.375 L 110.109375 0 C 101.140625 0 94.035156 -1.207031 88.796875 -3.625 C 83.566406 -6.039062 79.597656 -9.203125 76.890625 -13.109375 C 74.179688 -17.023438 72.28125 -21.34375 71.1875 -26.0625 C 70.101562 -30.78125 69.210938 -35.5 68.515625 -40.21875 C 67.828125 -44.9375 66.878906 -49.25 65.671875 -53.15625 C 64.460938 -57.070312 62.445312 -60.238281 59.625 -62.65625 C 56.8125 -65.070312 52.585938 -66.28125 46.953125 -66.28125 Z M 46.953125 -66.28125 "/></g></g></g><g fill="#000000" fill-opacity="1"><g transform="translate(241.076305, 230.249985)"><g><path d="M 91.46875 -112.1875 L 61.78125 -54.890625 L 61.78125 0 L 48.15625 0 L 48.15625 -51.265625 L 6.046875 -122.03125 L 21.578125 -122.03125 L 48.15625 -77.328125 L 60.921875 -56.09375 L 89.40625 -111.328125 C 90.664062 -113.742188 91.035156 -115.695312 90.515625 -117.1875 C 90.003906 -118.6875 89.113281 -119.835938 87.84375 -120.640625 C 86.582031 -121.441406 85.375 -121.90625 84.21875 -122.03125 L 103.734375 -122.03125 C 102.234375 -121.90625 100.617188 -121.238281 98.890625 -120.03125 C 97.171875 -118.832031 95.617188 -117.484375 94.234375 -115.984375 C 92.859375 -114.484375 91.9375 -113.21875 91.46875 -112.1875 Z M 91.46875 -112.1875 "/></g></g></g><g fill="#000000" fill-opacity="1"><g transform="translate(63.937988, 93.384522)"><g><path d="M 12.15625 -14.90625 C 13.476562 -14.59375 14.546875 -14.003906 15.359375 -13.140625 C 16.171875 -12.273438 16.847656 -11.253906 17.390625 -10.078125 C 17.941406 -8.910156 18.472656 -7.726562 18.984375 -6.53125 C 19.472656 -5.4375 19.96875 -4.410156 20.46875 -3.453125 C 20.976562 -2.503906 21.550781 -1.742188 22.1875 -1.171875 C 22.832031 -0.597656 23.570312 -0.3125 24.40625 -0.3125 L 24.40625 0 C 22.425781 0 20.851562 -0.265625 19.6875 -0.796875 C 18.53125 -1.335938 17.660156 -2.046875 17.078125 -2.921875 C 16.492188 -3.796875 16.070312 -4.753906 15.8125 -5.796875 C 15.5625 -6.847656 15.363281 -7.894531 15.21875 -8.9375 C 15.082031 -9.976562 14.878906 -10.9375 14.609375 -11.8125 C 14.347656 -12.695312 13.90625 -13.40625 13.28125 -13.9375 C 12.65625 -14.476562 11.726562 -14.75 10.5 -14.75 C 8.570312 -14.75 7.019531 -15.664062 5.84375 -17.5 C 5.1875 -18.570312 4.691406 -19.882812 4.359375 -21.4375 L 4.359375 0 L 1.34375 0 L 1.34375 -27.015625 L 8.0625 -27.015625 C 9.945312 -27.015625 11.660156 -26.804688 13.203125 -26.390625 C 14.742188 -25.984375 15.976562 -25.34375 16.90625 -24.46875 C 17.832031 -23.59375 18.296875 -22.425781 18.296875 -20.96875 C 18.296875 -19.726562 18.015625 -18.679688 17.453125 -17.828125 C 16.898438 -16.972656 16.15625 -16.304688 15.21875 -15.828125 C 14.289062 -15.359375 13.269531 -15.050781 12.15625 -14.90625 Z M 15.28125 -20.96875 C 15.28125 -22.425781 14.9375 -23.570312 14.25 -24.40625 C 13.5625 -25.25 12.671875 -25.84375 11.578125 -26.1875 C 10.484375 -26.53125 9.3125 -26.703125 8.0625 -26.703125 L 4.359375 -26.703125 L 4.359375 -24.328125 C 4.359375 -22.929688 4.515625 -21.6875 4.828125 -20.59375 C 5.148438 -19.5 5.578125 -18.53125 6.109375 -17.6875 C 6.648438 -16.894531 7.300781 -16.25 8.0625 -15.75 C 8.820312 -15.257812 9.632812 -15.015625 10.5 -15.015625 L 10.765625 -15.015625 C 11.992188 -15.085938 13.050781 -15.59375 13.9375 -16.53125 C 14.832031 -17.476562 15.28125 -18.957031 15.28125 -20.96875 Z M 15.28125 -20.96875 "/></g></g></g><g fill="#000000" fill-opacity="1"><g transform="translate(91.100618, 93.384522)"><g><path d="M 4.28125 -18 L 4.28125 -0.3125 L 10.734375 -0.3125 C 12.390625 -0.3125 13.742188 -0.71875 14.796875 -1.53125 C 15.859375 -2.34375 16.734375 -3.71875 17.421875 -5.65625 L 16.546875 0 L 1.34375 0 L 1.34375 -26.96875 L 16.765625 -26.96875 L 16.765625 -23.921875 C 15.878906 -24.785156 15.015625 -25.414062 14.171875 -25.8125 C 13.328125 -26.207031 12.375 -26.453125 11.3125 -26.546875 C 10.257812 -26.648438 8.957031 -26.703125 7.40625 -26.703125 L 4.28125 -26.703125 L 4.28125 -20.515625 C 4.28125 -18.785156 4.570312 -17.460938 5.15625 -16.546875 C 5.738281 -15.628906 6.613281 -15.007812 7.78125 -14.6875 C 8.957031 -14.375 10.425781 -14.21875 12.1875 -14.21875 L 12.1875 -11.1875 C 11.625 -11.832031 10.953125 -12.335938 10.171875 -12.703125 C 9.398438 -13.066406 8.613281 -13.445312 7.8125 -13.84375 C 7.007812 -14.238281 6.289062 -14.75 5.65625 -15.375 C 5.019531 -16 4.5625 -16.875 4.28125 -18 Z M 4.28125 -18 "/></g></g></g><g fill="#000000" fill-opacity="1"><g transform="translate(111.272087, 93.384522)"><g><path d="M 3.28125 -20.484375 C 3.28125 -21.898438 3.625 -23.078125 4.3125 -24.015625 C 5 -24.960938 5.894531 -25.695312 7 -26.21875 C 8.113281 -26.75 9.332031 -27.070312 10.65625 -27.1875 C 11.976562 -27.300781 13.289062 -27.226562 14.59375 -26.96875 C 15.894531 -26.71875 17.070312 -26.296875 18.125 -25.703125 C 19.1875 -25.117188 19.984375 -24.382812 20.515625 -23.5 L 20.515625 -19.484375 C 19.546875 -21.441406 18.425781 -22.96875 17.15625 -24.0625 C 15.882812 -25.15625 14.570312 -25.898438 13.21875 -26.296875 C 11.863281 -26.691406 10.578125 -26.800781 9.359375 -26.625 C 8.140625 -26.445312 7.082031 -26.050781 6.1875 -25.4375 C 5.445312 -24.957031 4.941406 -24.347656 4.671875 -23.609375 C 4.410156 -22.867188 4.488281 -22.035156 4.90625 -21.109375 C 5.332031 -20.179688 6.179688 -19.191406 7.453125 -18.140625 C 8.722656 -17.097656 10.519531 -16.03125 12.84375 -14.9375 C 14.238281 -14.351562 15.550781 -13.691406 16.78125 -12.953125 C 18.019531 -12.210938 19.023438 -11.316406 19.796875 -10.265625 C 20.578125 -9.222656 20.96875 -7.953125 20.96875 -6.453125 C 20.96875 -5.429688 20.769531 -4.519531 20.375 -3.71875 C 19.988281 -2.914062 19.445312 -2.238281 18.75 -1.6875 C 17.65625 -0.84375 16.34375 -0.304688 14.8125 -0.078125 C 13.289062 0.148438 11.695312 0.101562 10.03125 -0.21875 C 8.363281 -0.550781 6.765625 -1.15625 5.234375 -2.03125 C 3.703125 -2.914062 2.40625 -4.046875 1.34375 -5.421875 L 1.34375 -10.734375 C 2.28125 -8.367188 3.460938 -6.394531 4.890625 -4.8125 C 6.316406 -3.226562 7.847656 -2.054688 9.484375 -1.296875 C 11.128906 -0.535156 12.734375 -0.203125 14.296875 -0.296875 C 15.867188 -0.398438 17.253906 -0.960938 18.453125 -1.984375 C 19.085938 -2.515625 19.488281 -3.144531 19.65625 -3.875 C 19.820312 -4.601562 19.664062 -5.410156 19.1875 -6.296875 C 18.71875 -7.191406 17.851562 -8.128906 16.59375 -9.109375 C 15.332031 -10.085938 13.597656 -11.085938 11.390625 -12.109375 C 10.015625 -12.722656 8.707031 -13.398438 7.46875 -14.140625 C 6.226562 -14.878906 5.21875 -15.753906 4.4375 -16.765625 C 3.664062 -17.785156 3.28125 -19.023438 3.28125 -20.484375 Z M 3.28125 -20.484375 "/></g></g></g><g fill="#000000" fill-opacity="1"><g transform="translate(134.996443, 93.384522)"><g><path d="M 10.421875 0 L 10.421875 -26.703125 C 9.078125 -26.703125 7.875 -26.644531 6.8125 -26.53125 C 5.757812 -26.414062 4.789062 -26.171875 3.90625 -25.796875 C 3.03125 -25.429688 2.175781 -24.84375 1.34375 -24.03125 L 1.34375 -27.015625 L 22.46875 -27.015625 L 22.46875 -24.03125 C 21.601562 -24.84375 20.726562 -25.429688 19.84375 -25.796875 C 18.96875 -26.171875 18.003906 -26.414062 16.953125 -26.53125 C 15.910156 -26.644531 14.71875 -26.703125 13.375 -26.703125 L 13.375 0 Z M 10.421875 0 "/></g></g></g><g fill="#000000" fill-opacity="1"><g transform="translate(160.210717, 93.384522)"><g><path d="M 19.90625 0 L 15.59375 -10.359375 C 13.957031 -10.203125 12.609375 -9.867188 11.546875 -9.359375 C 10.492188 -8.847656 9.640625 -8.226562 8.984375 -7.5 C 8.335938 -6.78125 7.816406 -6.023438 7.421875 -5.234375 C 7.035156 -4.441406 6.6875 -3.703125 6.375 -3.015625 C 6.019531 -2.078125 5.628906 -1.296875 5.203125 -0.671875 C 4.785156 -0.046875 4.144531 0.253906 3.28125 0.234375 C 3.175781 0.203125 3.078125 0.171875 2.984375 0.140625 C 2.898438 0.117188 2.796875 0.0625 2.671875 -0.03125 C 1.628906 -0.488281 1.207031 -1.597656 1.40625 -3.359375 C 1.507812 -4.203125 1.695312 -5.148438 1.96875 -6.203125 C 2.238281 -7.265625 2.601562 -8.40625 3.0625 -9.625 C 3.75 -11.457031 4.554688 -13.398438 5.484375 -15.453125 C 6.410156 -17.503906 7.390625 -19.53125 8.421875 -21.53125 C 9.453125 -23.53125 10.453125 -25.34375 11.421875 -26.96875 L 11.6875 -26.96875 L 23.109375 0 Z M 15.46875 -10.625 L 9.859375 -23.6875 C 8.679688 -21.445312 7.5 -19.082031 6.3125 -16.59375 C 5.132812 -14.113281 4.140625 -11.765625 3.328125 -9.546875 C 2.867188 -8.328125 2.503906 -7.191406 2.234375 -6.140625 C 1.960938 -5.097656 1.78125 -4.171875 1.6875 -3.359375 C 1.65625 -2.566406 1.710938 -1.894531 1.859375 -1.34375 C 2.015625 -0.800781 2.320312 -0.457031 2.78125 -0.3125 C 2.914062 -0.28125 3.015625 -0.25 3.078125 -0.21875 C 3.140625 -0.195312 3.222656 -0.160156 3.328125 -0.109375 C 4.085938 -0.0546875 4.65625 -0.320312 5.03125 -0.90625 C 5.414062 -1.5 5.765625 -2.226562 6.078125 -3.09375 C 6.378906 -3.8125 6.734375 -4.570312 7.140625 -5.375 C 7.546875 -6.175781 8.085938 -6.941406 8.765625 -7.671875 C 9.441406 -8.410156 10.3125 -9.046875 11.375 -9.578125 C 12.445312 -10.117188 13.8125 -10.46875 15.46875 -10.625 Z M 15.46875 -10.625 "/></g></g></g><g fill="#000000" fill-opacity="1"><g transform="translate(186.074443, 93.384522)"><g><path d="M 4.359375 -27.015625 L 4.359375 -9.78125 C 4.359375 -8.195312 4.65625 -6.738281 5.25 -5.40625 C 5.851562 -4.070312 6.675781 -2.960938 7.71875 -2.078125 C 8.757812 -1.203125 9.960938 -0.640625 11.328125 -0.390625 C 12.691406 -0.148438 14.132812 -0.3125 15.65625 -0.875 C 17.488281 -1.539062 18.921875 -2.644531 19.953125 -4.1875 C 20.992188 -5.726562 21.515625 -7.59375 21.515625 -9.78125 C 21.515625 -11.207031 21.492188 -12.75 21.453125 -14.40625 C 21.410156 -16.0625 21.304688 -17.695312 21.140625 -19.3125 C 20.972656 -20.925781 20.710938 -22.40625 20.359375 -23.75 C 20.003906 -25.101562 19.507812 -26.191406 18.875 -27.015625 L 21.859375 -27.015625 L 21.859375 -9.78125 C 21.859375 -7.664062 21.335938 -5.785156 20.296875 -4.140625 C 19.265625 -2.503906 17.742188 -1.316406 15.734375 -0.578125 C 14.035156 0.0351562 12.332031 0.257812 10.625 0.09375 C 8.914062 -0.0703125 7.359375 -0.570312 5.953125 -1.40625 C 4.554688 -2.25 3.4375 -3.382812 2.59375 -4.8125 C 1.757812 -6.238281 1.34375 -7.894531 1.34375 -9.78125 L 1.34375 -27.015625 Z M 4.359375 -27.015625 "/></g></g></g><g fill="#000000" fill-opacity="1"><g transform="translate(210.677465, 93.384522)"><g><path d="M 12.15625 -14.90625 C 13.476562 -14.59375 14.546875 -14.003906 15.359375 -13.140625 C 16.171875 -12.273438 16.847656 -11.253906 17.390625 -10.078125 C 17.941406 -8.910156 18.472656 -7.726562 18.984375 -6.53125 C 19.472656 -5.4375 19.96875 -4.410156 20.46875 -3.453125 C 20.976562 -2.503906 21.550781 -1.742188 22.1875 -1.171875 C 22.832031 -0.597656 23.570312 -0.3125 24.40625 -0.3125 L 24.40625 0 C 22.425781 0 20.851562 -0.265625 19.6875 -0.796875 C 18.53125 -1.335938 17.660156 -2.046875 17.078125 -2.921875 C 16.492188 -3.796875 16.070312 -4.753906 15.8125 -5.796875 C 15.5625 -6.847656 15.363281 -7.894531 15.21875 -8.9375 C 15.082031 -9.976562 14.878906 -10.9375 14.609375 -11.8125 C 14.347656 -12.695312 13.90625 -13.40625 13.28125 -13.9375 C 12.65625 -14.476562 11.726562 -14.75 10.5 -14.75 C 8.570312 -14.75 7.019531 -15.664062 5.84375 -17.5 C 5.1875 -18.570312 4.691406 -19.882812 4.359375 -21.4375 L 4.359375 0 L 1.34375 0 L 1.34375 -27.015625 L 8.0625 -27.015625 C 9.945312 -27.015625 11.660156 -26.804688 13.203125 -26.390625 C 14.742188 -25.984375 15.976562 -25.34375 16.90625 -24.46875 C 17.832031 -23.59375 18.296875 -22.425781 18.296875 -20.96875 C 18.296875 -19.726562 18.015625 -18.679688 17.453125 -17.828125 C 16.898438 -16.972656 16.15625 -16.304688 15.21875 -15.828125 C 14.289062 -15.359375 13.269531 -15.050781 12.15625 -14.90625 Z M 15.28125 -20.96875 C 15.28125 -22.425781 14.9375 -23.570312 14.25 -24.40625 C 13.5625 -25.25 12.671875 -25.84375 11.578125 -26.1875 C 10.484375 -26.53125 9.3125 -26.703125 8.0625 -26.703125 L 4.359375 -26.703125 L 4.359375 -24.328125 C 4.359375 -22.929688 4.515625 -21.6875 4.828125 -20.59375 C 5.148438 -19.5 5.578125 -18.53125 6.109375 -17.6875 C 6.648438 -16.894531 7.300781 -16.25 8.0625 -15.75 C 8.820312 -15.257812 9.632812 -15.015625 10.5 -15.015625 L 10.765625 -15.015625 C 11.992188 -15.085938 13.050781 -15.59375 13.9375 -16.53125 C 14.832031 -17.476562 15.28125 -18.957031 15.28125 -20.96875 Z M 15.28125 -20.96875 "/></g></g></g><g fill="#000000" fill-opacity="1"><g transform="translate(237.840095, 93.384522)"><g><path d="M 19.90625 0 L 15.59375 -10.359375 C 13.957031 -10.203125 12.609375 -9.867188 11.546875 -9.359375 C 10.492188 -8.847656 9.640625 -8.226562 8.984375 -7.5 C 8.335938 -6.78125 7.816406 -6.023438 7.421875 -5.234375 C 7.035156 -4.441406 6.6875 -3.703125 6.375 -3.015625 C 6.019531 -2.078125 5.628906 -1.296875 5.203125 -0.671875 C 4.785156 -0.046875 4.144531 0.253906 3.28125 0.234375 C 3.175781 0.203125 3.078125 0.171875 2.984375 0.140625 C 2.898438 0.117188 2.796875 0.0625 2.671875 -0.03125 C 1.628906 -0.488281 1.207031 -1.597656 1.40625 -3.359375 C 1.507812 -4.203125 1.695312 -5.148438 1.96875 -6.203125 C 2.238281 -7.265625 2.601562 -8.40625 3.0625 -9.625 C 3.75 -11.457031 4.554688 -13.398438 5.484375 -15.453125 C 6.410156 -17.503906 7.390625 -19.53125 8.421875 -21.53125 C 9.453125 -23.53125 10.453125 -25.34375 11.421875 -26.96875 L 11.6875 -26.96875 L 23.109375 0 Z M 15.46875 -10.625 L 9.859375 -23.6875 C 8.679688 -21.445312 7.5 -19.082031 6.3125 -16.59375 C 5.132812 -14.113281 4.140625 -11.765625 3.328125 -9.546875 C 2.867188 -8.328125 2.503906 -7.191406 2.234375 -6.140625 C 1.960938 -5.097656 1.78125 -4.171875 1.6875 -3.359375 C 1.65625 -2.566406 1.710938 -1.894531 1.859375 -1.34375 C 2.015625 -0.800781 2.320312 -0.457031 2.78125 -0.3125 C 2.914062 -0.28125 3.015625 -0.25 3.078125 -0.21875 C 3.140625 -0.195312 3.222656 -0.160156 3.328125 -0.109375 C 4.085938 -0.0546875 4.65625 -0.320312 5.03125 -0.90625 C 5.414062 -1.5 5.765625 -2.226562 6.078125 -3.09375 C 6.378906 -3.8125 6.734375 -4.570312 7.140625 -5.375 C 7.546875 -6.175781 8.085938 -6.941406 8.765625 -7.671875 C 9.441406 -8.410156 10.3125 -9.046875 11.375 -9.578125 C 12.445312 -10.117188 13.8125 -10.46875 15.46875 -10.625 Z M 15.46875 -10.625 "/></g></g></g><g fill="#000000" fill-opacity="1"><g transform="translate(263.703821, 93.384522)"><g><path d="M 1.34375 -26.96875 L 4.203125 -26.96875 C 6.285156 -26.96875 8.132812 -26.257812 9.75 -24.84375 C 11.375 -23.4375 12.734375 -21.625 13.828125 -19.40625 C 14.953125 -17.320312 15.84375 -15.023438 16.5 -12.515625 C 17.164062 -10.003906 17.640625 -7.515625 17.921875 -5.046875 L 17.921875 -26.96875 L 20.78125 -26.96875 L 20.78125 0 L 17.921875 0 C 17.921875 -2.039062 17.757812 -4.191406 17.4375 -6.453125 C 17.125 -8.722656 16.65625 -10.960938 16.03125 -13.171875 C 15.40625 -15.390625 14.617188 -17.414062 13.671875 -19.25 C 12.523438 -21.445312 11.175781 -23.238281 9.625 -24.625 C 8.070312 -26.007812 6.265625 -26.703125 4.203125 -26.703125 L 4.203125 0 L 1.34375 0 Z M 1.34375 -26.96875 "/></g></g></g><g fill="#000000" fill-opacity="1"><g transform="translate(287.237152, 93.384522)"><g><path d="M 10.421875 0 L 10.421875 -26.703125 C 9.078125 -26.703125 7.875 -26.644531 6.8125 -26.53125 C 5.757812 -26.414062 4.789062 -26.171875 3.90625 -25.796875 C 3.03125 -25.429688 2.175781 -24.84375 1.34375 -24.03125 L 1.34375 -27.015625 L 22.46875 -27.015625 L 22.46875 -24.03125 C 21.601562 -24.84375 20.726562 -25.429688 19.84375 -25.796875 C 18.96875 -26.171875 18.003906 -26.414062 16.953125 -26.53125 C 15.910156 -26.644531 14.71875 -26.703125 13.375 -26.703125 L 13.375 0 Z M 10.421875 0 "/></g></g></g><g fill="#000000" fill-opacity="1"><g transform="translate(124.033113, 271.616056)"><g><path d="M 13.75 -2.140625 L 13.78125 -2.078125 C 13.582031 -1.816406 13.359375 -1.550781 13.109375 -1.28125 C 12.859375 -1.007812 12.582031 -0.78125 12.28125 -0.59375 C 11.976562 -0.414062 11.640625 -0.328125 11.265625 -0.328125 C 10.753906 -0.328125 10.269531 -0.425781 9.8125 -0.625 C 9.363281 -0.832031 8.96875 -1.070312 8.625 -1.34375 C 8.101562 -0.957031 7.554688 -0.597656 6.984375 -0.265625 C 6.421875 0.0664062 5.847656 0.328125 5.265625 0.515625 C 4.691406 0.710938 4.117188 0.789062 3.546875 0.75 C 2.972656 0.71875 2.410156 0.535156 1.859375 0.203125 C 1.441406 -0.078125 1.125 -0.441406 0.90625 -0.890625 C 0.695312 -1.347656 0.59375 -1.847656 0.59375 -2.390625 C 0.59375 -2.929688 0.707031 -3.460938 0.9375 -3.984375 C 1.175781 -4.515625 1.535156 -5 2.015625 -5.4375 C 2.503906 -5.882812 3.128906 -6.226562 3.890625 -6.46875 C 3.398438 -7.125 3.078125 -7.773438 2.921875 -8.421875 C 2.765625 -9.078125 2.753906 -9.671875 2.890625 -10.203125 C 3.035156 -10.742188 3.304688 -11.175781 3.703125 -11.5 C 4.109375 -11.832031 4.625 -12 5.25 -12 C 5.757812 -12 6.207031 -11.867188 6.59375 -11.609375 C 6.988281 -11.359375 7.28125 -11.03125 7.46875 -10.625 C 7.65625 -10.21875 7.71875 -9.78125 7.65625 -9.3125 C 7.601562 -8.851562 7.382812 -8.40625 7 -7.96875 C 6.625 -7.539062 6.054688 -7.175781 5.296875 -6.875 C 5.847656 -6.144531 6.460938 -5.359375 7.140625 -4.515625 C 7.828125 -3.679688 8.570312 -2.867188 9.375 -2.078125 C 9.800781 -2.441406 10.160156 -2.816406 10.453125 -3.203125 C 10.742188 -3.597656 10.953125 -3.898438 11.078125 -4.109375 L 11.15625 -4.03125 C 10.988281 -3.75 10.765625 -3.421875 10.484375 -3.046875 C 10.203125 -2.671875 9.851562 -2.316406 9.4375 -1.984375 C 9.75 -1.765625 10.054688 -1.554688 10.359375 -1.359375 C 10.660156 -1.171875 10.976562 -1.019531 11.3125 -0.90625 C 11.800781 -0.800781 12.226562 -0.847656 12.59375 -1.046875 C 12.957031 -1.253906 13.34375 -1.617188 13.75 -2.140625 Z M 3.9375 -6.40625 C 3.363281 -6.195312 2.867188 -5.898438 2.453125 -5.515625 C 2.035156 -5.140625 1.726562 -4.710938 1.53125 -4.234375 C 1.332031 -3.753906 1.269531 -3.25 1.34375 -2.71875 C 1.425781 -2.195312 1.675781 -1.675781 2.09375 -1.15625 C 2.625 -0.539062 3.238281 -0.171875 3.9375 -0.046875 C 4.644531 0.0664062 5.394531 0 6.1875 -0.25 C 6.976562 -0.5 7.765625 -0.878906 8.546875 -1.390625 C 8.203125 -1.671875 7.816406 -2.019531 7.390625 -2.4375 C 6.972656 -2.863281 6.546875 -3.316406 6.109375 -3.796875 C 5.679688 -4.273438 5.273438 -4.742188 4.890625 -5.203125 C 4.515625 -5.660156 4.195312 -6.0625 3.9375 -6.40625 Z M 5.25 -11.828125 C 4.644531 -11.828125 4.195312 -11.648438 3.90625 -11.296875 C 3.613281 -10.941406 3.554688 -10.398438 3.734375 -9.671875 C 3.910156 -8.953125 4.40625 -8.050781 5.21875 -6.96875 C 5.664062 -7.21875 6.023438 -7.546875 6.296875 -7.953125 C 6.566406 -8.359375 6.742188 -8.785156 6.828125 -9.234375 C 6.921875 -9.679688 6.921875 -10.101562 6.828125 -10.5 C 6.734375 -10.894531 6.550781 -11.210938 6.28125 -11.453125 C 6.019531 -11.703125 5.675781 -11.828125 5.25 -11.828125 Z M 5.25 -11.828125 "/></g></g></g><g fill="#000000" fill-opacity="1"><g transform="translate(141.690467, 271.616056)"><g/></g></g><g fill="#000000" fill-opacity="1"><g transform="translate(149.596288, 271.616056)"><g><path d="M 4.546875 -6.34375 C 4.148438 -6.34375 3.78125 -6.445312 3.4375 -6.65625 C 3.101562 -6.875 2.804688 -7.171875 2.546875 -7.546875 C 2.234375 -7.984375 2.015625 -8.53125 1.890625 -9.1875 L 1.890625 0 L 0.578125 0 L 0.578125 -11.65625 L 3.5 -11.65625 C 4.3125 -11.65625 5.050781 -11.566406 5.71875 -11.390625 C 6.394531 -11.210938 6.929688 -10.929688 7.328125 -10.546875 C 7.734375 -10.160156 7.9375 -9.648438 7.9375 -9.015625 C 7.9375 -8.398438 7.769531 -7.894531 7.4375 -7.5 C 7.113281 -7.101562 6.691406 -6.8125 6.171875 -6.625 C 5.660156 -6.4375 5.117188 -6.34375 4.546875 -6.34375 Z M 6.609375 -9.015625 C 6.609375 -9.640625 6.457031 -10.132812 6.15625 -10.5 C 5.851562 -10.875 5.460938 -11.140625 4.984375 -11.296875 C 4.515625 -11.453125 4.019531 -11.53125 3.5 -11.53125 L 1.890625 -11.53125 L 1.890625 -10.4375 C 1.890625 -9.875 1.953125 -9.351562 2.078125 -8.875 C 2.210938 -8.394531 2.398438 -7.976562 2.640625 -7.625 C 3.128906 -6.851562 3.765625 -6.46875 4.546875 -6.46875 C 5.097656 -6.46875 5.578125 -6.664062 5.984375 -7.0625 C 6.398438 -7.457031 6.609375 -8.109375 6.609375 -9.015625 Z M 6.609375 -9.015625 "/></g></g></g><g fill="#000000" fill-opacity="1"><g transform="translate(161.412624, 271.616056)"><g><path d="M 4.9375 -11.484375 C 5.707031 -11.703125 6.46875 -11.753906 7.21875 -11.640625 C 7.976562 -11.535156 8.6875 -11.289062 9.34375 -10.90625 C 10 -10.519531 10.5625 -10.019531 11.03125 -9.40625 C 11.507812 -8.789062 11.847656 -8.09375 12.046875 -7.3125 C 12.265625 -6.539062 12.320312 -5.773438 12.21875 -5.015625 C 12.113281 -4.253906 11.867188 -3.539062 11.484375 -2.875 C 11.109375 -2.21875 10.613281 -1.648438 10 -1.171875 C 9.394531 -0.703125 8.703125 -0.363281 7.921875 -0.15625 C 7.148438 0.0703125 6.382812 0.132812 5.625 0.03125 C 4.863281 -0.0703125 4.15625 -0.316406 3.5 -0.703125 C 2.851562 -1.085938 2.289062 -1.585938 1.8125 -2.203125 C 1.34375 -2.816406 1 -3.519531 0.78125 -4.3125 C 0.570312 -5.09375 0.523438 -5.863281 0.640625 -6.625 C 0.753906 -7.382812 1 -8.09375 1.375 -8.75 C 1.757812 -9.40625 2.253906 -9.972656 2.859375 -10.453125 C 3.460938 -10.929688 4.15625 -11.273438 4.9375 -11.484375 Z M 4.953125 -11.359375 C 4.242188 -11.179688 3.664062 -10.851562 3.21875 -10.375 C 2.78125 -9.894531 2.445312 -9.328125 2.21875 -8.671875 C 2 -8.023438 1.882812 -7.347656 1.875 -6.640625 C 1.863281 -5.941406 1.941406 -5.28125 2.109375 -4.65625 C 2.273438 -4.03125 2.535156 -3.421875 2.890625 -2.828125 C 3.253906 -2.234375 3.691406 -1.707031 4.203125 -1.25 C 4.710938 -0.789062 5.28125 -0.460938 5.90625 -0.265625 C 6.53125 -0.078125 7.191406 -0.078125 7.890625 -0.265625 C 8.585938 -0.453125 9.160156 -0.785156 9.609375 -1.265625 C 10.066406 -1.742188 10.40625 -2.304688 10.625 -2.953125 C 10.84375 -3.597656 10.960938 -4.269531 10.984375 -4.96875 C 11.003906 -5.675781 10.9375 -6.347656 10.78125 -6.984375 C 10.613281 -7.617188 10.347656 -8.234375 9.984375 -8.828125 C 9.617188 -9.429688 9.179688 -9.957031 8.671875 -10.40625 C 8.160156 -10.863281 7.585938 -11.1875 6.953125 -11.375 C 6.328125 -11.5625 5.660156 -11.554688 4.953125 -11.359375 Z M 4.953125 -11.359375 "/></g></g></g><g fill="#000000" fill-opacity="1"><g transform="translate(177.568479, 271.616056)"><g><path d="M 4.9375 -11.484375 C 5.707031 -11.703125 6.46875 -11.753906 7.21875 -11.640625 C 7.976562 -11.535156 8.6875 -11.289062 9.34375 -10.90625 C 10 -10.519531 10.5625 -10.019531 11.03125 -9.40625 C 11.507812 -8.789062 11.847656 -8.09375 12.046875 -7.3125 C 12.265625 -6.539062 12.320312 -5.773438 12.21875 -5.015625 C 12.113281 -4.253906 11.867188 -3.539062 11.484375 -2.875 C 11.109375 -2.21875 10.613281 -1.648438 10 -1.171875 C 9.394531 -0.703125 8.703125 -0.363281 7.921875 -0.15625 C 7.148438 0.0703125 6.382812 0.132812 5.625 0.03125 C 4.863281 -0.0703125 4.15625 -0.316406 3.5 -0.703125 C 2.851562 -1.085938 2.289062 -1.585938 1.8125 -2.203125 C 1.34375 -2.816406 1 -3.519531 0.78125 -4.3125 C 0.570312 -5.09375 0.523438 -5.863281 0.640625 -6.625 C 0.753906 -7.382812 1 -8.09375 1.375 -8.75 C 1.757812 -9.40625 2.253906 -9.972656 2.859375 -10.453125 C 3.460938 -10.929688 4.15625 -11.273438 4.9375 -11.484375 Z M 4.953125 -11.359375 C 4.242188 -11.179688 3.664062 -10.851562 3.21875 -10.375 C 2.78125 -9.894531 2.445312 -9.328125 2.21875 -8.671875 C 2 -8.023438 1.882812 -7.347656 1.875 -6.640625 C 1.863281 -5.941406 1.941406 -5.28125 2.109375 -4.65625 C 2.273438 -4.03125 2.535156 -3.421875 2.890625 -2.828125 C 3.253906 -2.234375 3.691406 -1.707031 4.203125 -1.25 C 4.710938 -0.789062 5.28125 -0.460938 5.90625 -0.265625 C 6.53125 -0.078125 7.191406 -0.078125 7.890625 -0.265625 C 8.585938 -0.453125 9.160156 -0.785156 9.609375 -1.265625 C 10.066406 -1.742188 10.40625 -2.304688 10.625 -2.953125 C 10.84375 -3.597656 10.960938 -4.269531 10.984375 -4.96875 C 11.003906 -5.675781 10.9375 -6.347656 10.78125 -6.984375 C 10.613281 -7.617188 10.347656 -8.234375 9.984375 -8.828125 C 9.617188 -9.429688 9.179688 -9.957031 8.671875 -10.40625 C 8.160156 -10.863281 7.585938 -11.1875 6.953125 -11.375 C 6.328125 -11.5625 5.660156 -11.554688 4.953125 -11.359375 Z M 4.953125 -11.359375 "/></g></g></g><g fill="#000000" fill-opacity="1"><g transform="translate(193.724332, 271.616056)"><g><path d="M 7.5625 -2.4375 L 7.15625 0 L 0.578125 0 L 0.578125 -11.65625 L 1.890625 -11.65625 L 1.890625 -0.125 L 4.6875 -0.125 C 5.40625 -0.125 5.984375 -0.300781 6.421875 -0.65625 C 6.867188 -1.007812 7.25 -1.601562 7.5625 -2.4375 Z M 7.5625 -2.4375 "/></g></g></g><g fill="#000000" fill-opacity="1"><g transform="translate(205.161167, 271.616056)"><g/></g></g><g fill="#000000" fill-opacity="1"><g transform="translate(213.066986, 271.616056)"><g><path d="M 5.46875 -6.421875 C 6.15625 -6.378906 6.765625 -6.253906 7.296875 -6.046875 C 7.828125 -5.835938 8.242188 -5.507812 8.546875 -5.0625 C 8.859375 -4.625 9.015625 -4.015625 9.015625 -3.234375 C 9.015625 -2.347656 8.8125 -1.671875 8.40625 -1.203125 C 8 -0.742188 7.457031 -0.429688 6.78125 -0.265625 C 6.101562 -0.0976562 5.335938 -0.0078125 4.484375 0 L 0.578125 0 L 0.578125 -11.65625 L 3.4375 -11.65625 C 4.257812 -11.65625 5.007812 -11.566406 5.6875 -11.390625 C 6.363281 -11.210938 6.898438 -10.929688 7.296875 -10.546875 C 7.691406 -10.160156 7.890625 -9.648438 7.890625 -9.015625 C 7.890625 -8.273438 7.648438 -7.691406 7.171875 -7.265625 C 6.703125 -6.847656 6.132812 -6.566406 5.46875 -6.421875 Z M 7.71875 -3.234375 C 7.71875 -3.972656 7.617188 -4.550781 7.421875 -4.96875 C 7.222656 -5.382812 6.960938 -5.691406 6.640625 -5.890625 C 6.316406 -6.085938 5.96875 -6.210938 5.59375 -6.265625 C 5.21875 -6.316406 4.847656 -6.34375 4.484375 -6.34375 C 4.097656 -6.34375 3.734375 -6.445312 3.390625 -6.65625 C 3.046875 -6.875 2.753906 -7.171875 2.515625 -7.546875 C 2.367188 -7.765625 2.242188 -8.015625 2.140625 -8.296875 C 2.035156 -8.578125 1.945312 -8.875 1.875 -9.1875 L 1.875 -0.125 L 4.359375 -0.125 C 4.734375 -0.125 5.113281 -0.148438 5.5 -0.203125 C 5.894531 -0.253906 6.257812 -0.375 6.59375 -0.5625 C 6.925781 -0.757812 7.195312 -1.066406 7.40625 -1.484375 C 7.613281 -1.910156 7.71875 -2.492188 7.71875 -3.234375 Z M 6.59375 -9.015625 C 6.59375 -9.640625 6.4375 -10.132812 6.125 -10.5 C 5.820312 -10.875 5.425781 -11.140625 4.9375 -11.296875 C 4.457031 -11.453125 3.957031 -11.53125 3.4375 -11.53125 L 1.875 -11.53125 L 1.875 -10.4375 C 1.875 -9.875 1.941406 -9.351562 2.078125 -8.875 C 2.210938 -8.394531 2.398438 -7.976562 2.640625 -7.625 C 3.117188 -6.851562 3.734375 -6.46875 4.484375 -6.46875 C 4.859375 -6.46875 5.203125 -6.554688 5.515625 -6.734375 C 5.835938 -6.910156 6.097656 -7.1875 6.296875 -7.5625 C 6.492188 -7.9375 6.59375 -8.421875 6.59375 -9.015625 Z M 6.59375 -9.015625 "/></g></g></g><g fill="#000000" fill-opacity="1"><g transform="translate(225.955825, 271.616056)"><g><path d="M 8.59375 0 L 6.734375 -4.46875 C 6.023438 -4.40625 5.441406 -4.265625 4.984375 -4.046875 C 4.535156 -3.828125 4.171875 -3.554688 3.890625 -3.234375 C 3.609375 -2.921875 3.378906 -2.59375 3.203125 -2.25 C 3.035156 -1.914062 2.882812 -1.597656 2.75 -1.296875 C 2.601562 -0.890625 2.4375 -0.550781 2.25 -0.28125 C 2.070312 -0.0195312 1.796875 0.101562 1.421875 0.09375 C 1.378906 0.0820312 1.335938 0.0703125 1.296875 0.0625 C 1.253906 0.0507812 1.207031 0.0234375 1.15625 -0.015625 C 0.707031 -0.210938 0.523438 -0.691406 0.609375 -1.453125 C 0.648438 -1.816406 0.726562 -2.222656 0.84375 -2.671875 C 0.957031 -3.128906 1.113281 -3.625 1.3125 -4.15625 C 1.613281 -4.945312 1.960938 -5.785156 2.359375 -6.671875 C 2.765625 -7.554688 3.191406 -8.429688 3.640625 -9.296875 C 4.085938 -10.160156 4.519531 -10.945312 4.9375 -11.65625 L 5.046875 -11.65625 L 9.984375 0 Z M 6.6875 -4.59375 L 4.25 -10.234375 C 3.75 -9.265625 3.242188 -8.242188 2.734375 -7.171875 C 2.222656 -6.097656 1.789062 -5.082031 1.4375 -4.125 C 1.238281 -3.59375 1.082031 -3.101562 0.96875 -2.65625 C 0.851562 -2.207031 0.769531 -1.804688 0.71875 -1.453125 C 0.707031 -1.109375 0.734375 -0.816406 0.796875 -0.578125 C 0.867188 -0.347656 1.003906 -0.195312 1.203125 -0.125 C 1.253906 -0.113281 1.296875 -0.101562 1.328125 -0.09375 C 1.359375 -0.0820312 1.394531 -0.0664062 1.4375 -0.046875 C 1.769531 -0.0234375 2.015625 -0.140625 2.171875 -0.390625 C 2.335938 -0.648438 2.488281 -0.96875 2.625 -1.34375 C 2.757812 -1.644531 2.910156 -1.96875 3.078125 -2.3125 C 3.253906 -2.664062 3.488281 -3 3.78125 -3.3125 C 4.070312 -3.632812 4.445312 -3.910156 4.90625 -4.140625 C 5.375 -4.367188 5.96875 -4.519531 6.6875 -4.59375 Z M 6.6875 -4.59375 "/></g></g></g><g fill="#000000" fill-opacity="1"><g transform="translate(239.818167, 271.616056)"><g><path d="M 5.25 -6.4375 C 5.820312 -6.300781 6.28125 -6.046875 6.625 -5.671875 C 6.976562 -5.296875 7.273438 -4.851562 7.515625 -4.34375 C 7.753906 -3.84375 7.984375 -3.335938 8.203125 -2.828125 C 8.410156 -2.347656 8.625 -1.898438 8.84375 -1.484375 C 9.0625 -1.078125 9.304688 -0.75 9.578125 -0.5 C 9.859375 -0.25 10.179688 -0.125 10.546875 -0.125 L 10.546875 0 C 9.679688 0 9 -0.113281 8.5 -0.34375 C 8 -0.570312 7.625 -0.875 7.375 -1.25 C 7.125 -1.632812 6.941406 -2.050781 6.828125 -2.5 C 6.722656 -2.957031 6.640625 -3.410156 6.578125 -3.859375 C 6.515625 -4.304688 6.425781 -4.71875 6.3125 -5.09375 C 6.195312 -5.476562 6.003906 -5.785156 5.734375 -6.015625 C 5.460938 -6.253906 5.0625 -6.375 4.53125 -6.375 C 3.695312 -6.375 3.03125 -6.769531 2.53125 -7.5625 C 2.238281 -8.019531 2.019531 -8.582031 1.875 -9.25 L 1.875 0 L 0.578125 0 L 0.578125 -11.671875 L 3.484375 -11.671875 C 4.296875 -11.671875 5.035156 -11.582031 5.703125 -11.40625 C 6.367188 -11.226562 6.898438 -10.945312 7.296875 -10.5625 C 7.703125 -10.1875 7.90625 -9.6875 7.90625 -9.0625 C 7.90625 -8.519531 7.78125 -8.0625 7.53125 -7.6875 C 7.289062 -7.320312 6.96875 -7.035156 6.5625 -6.828125 C 6.164062 -6.628906 5.726562 -6.5 5.25 -6.4375 Z M 6.59375 -9.0625 C 6.59375 -9.6875 6.441406 -10.179688 6.140625 -10.546875 C 5.847656 -10.910156 5.46875 -11.164062 5 -11.3125 C 4.53125 -11.457031 4.023438 -11.53125 3.484375 -11.53125 L 1.875 -11.53125 L 1.875 -10.515625 C 1.875 -9.910156 1.941406 -9.367188 2.078125 -8.890625 C 2.222656 -8.421875 2.410156 -8.003906 2.640625 -7.640625 C 2.867188 -7.296875 3.144531 -7.015625 3.46875 -6.796875 C 3.800781 -6.585938 4.15625 -6.484375 4.53125 -6.484375 L 4.65625 -6.484375 C 5.175781 -6.515625 5.628906 -6.734375 6.015625 -7.140625 C 6.398438 -7.546875 6.59375 -8.1875 6.59375 -9.0625 Z M 6.59375 -9.0625 "/></g></g></g></svg>