<svg version="1.0" preserveAspectRatio="xMidYMid meet" viewBox="11.1 97.9499976492 347.25 140.249996634" zoomAndPan="magnify" xmlns:xlink="http://www.w3.org/1999/xlink" xmlns="http://www.w3.org/2000/svg" style="max-height: 500px" width="347.25" height="140.249996634"><defs><g/></defs><g fill-opacity="1" fill="#ffffff"><g transform="translate(9.949223, 233.999985)"><g><path d="M 16.140625 -100.546875 C 16.140625 -107.554688 17.828125 -113.375 21.203125 -118 C 24.578125 -122.625 28.984375 -126.21875 34.421875 -128.78125 C 39.859375 -131.34375 45.828125 -132.90625 52.328125 -133.46875 C 58.835938 -134.03125 65.28125 -133.6875 71.65625 -132.4375 C 78.039062 -131.1875 83.828125 -129.125 89.015625 -126.25 C 94.203125 -123.375 98.109375 -119.75 100.734375 -115.375 L 100.734375 -95.671875 C 95.984375 -105.304688 90.476562 -112.8125 84.21875 -118.1875 C 77.96875 -123.5625 71.53125 -127.21875 64.90625 -129.15625 C 58.28125 -131.09375 51.960938 -131.625 45.953125 -130.75 C 39.953125 -129.875 34.765625 -127.9375 30.390625 -124.9375 C 26.765625 -122.5625 24.296875 -119.5625 22.984375 -115.9375 C 21.671875 -112.3125 22.046875 -108.210938 24.109375 -103.640625 C 26.171875 -99.078125 30.328125 -94.234375 36.578125 -89.109375 C 42.828125 -83.984375 51.644531 -78.726562 63.03125 -73.34375 C 69.90625 -70.46875 76.375 -67.21875 82.4375 -63.59375 C 88.507812 -59.96875 93.453125 -55.585938 97.265625 -50.453125 C 101.078125 -45.328125 102.984375 -39.078125 102.984375 -31.703125 C 102.984375 -26.703125 102.015625 -22.226562 100.078125 -18.28125 C 98.140625 -14.34375 95.484375 -11 92.109375 -8.25 C 86.734375 -4.125 80.289062 -1.5 72.78125 -0.375 C 65.28125 0.75 57.429688 0.5 49.234375 -1.125 C 41.046875 -2.75 33.195312 -5.71875 25.6875 -10.03125 C 18.1875 -14.351562 11.8125 -19.890625 6.5625 -26.640625 L 6.5625 -52.71875 C 11.1875 -41.082031 17 -31.382812 24 -23.625 C 31.007812 -15.875 38.546875 -10.125 46.609375 -6.375 C 54.679688 -2.625 62.5625 -1 70.25 -1.5 C 77.945312 -2 84.734375 -4.75 90.609375 -9.75 C 93.734375 -12.375 95.703125 -15.46875 96.515625 -19.03125 C 97.328125 -22.601562 96.578125 -26.578125 94.265625 -30.953125 C 91.953125 -35.328125 87.695312 -39.921875 81.5 -44.734375 C 75.3125 -49.554688 66.78125 -54.46875 55.90625 -59.46875 C 49.144531 -62.46875 42.734375 -65.78125 36.671875 -69.40625 C 30.609375 -73.03125 25.671875 -77.34375 21.859375 -82.34375 C 18.046875 -87.351562 16.140625 -93.421875 16.140625 -100.546875 Z M 16.140625 -100.546875"/></g></g></g><g fill-opacity="1" fill="#ffffff"><g transform="translate(119.497143, 233.999985)"><g><path d="M 51.03125 -72.03125 C 47.144531 -72.03125 43.890625 -71.1875 41.265625 -69.5 C 38.640625 -67.8125 36.578125 -65.90625 35.078125 -63.78125 C 33.578125 -61.65625 32.515625 -59.96875 31.890625 -58.71875 C 28.390625 -50.707031 25.671875 -41.984375 23.734375 -32.546875 C 21.796875 -23.109375 20.828125 -12.257812 20.828125 0 L 6.5625 0 L 6.5625 -132.4375 L 20.828125 -132.4375 L 20.828125 -24.015625 C 22.328125 -35.640625 24.828125 -45.921875 28.328125 -54.859375 C 31.828125 -63.804688 36.203125 -72.125 41.453125 -79.8125 C 46.710938 -87.507812 52.65625 -95.296875 59.28125 -103.171875 C 59.28125 -103.171875 59.90625 -103.953125 61.15625 -105.515625 C 62.40625 -107.078125 63.84375 -109.046875 65.46875 -111.421875 C 67.09375 -113.804688 68.53125 -116.34375 69.78125 -119.03125 C 71.03125 -121.71875 71.6875 -124.28125 71.75 -126.71875 C 71.8125 -129.15625 70.84375 -131.0625 68.84375 -132.4375 L 99.984375 -132.4375 C 96.734375 -131.8125 93.453125 -130.5625 90.140625 -128.6875 C 86.828125 -126.8125 83.789062 -124.8125 81.03125 -122.6875 C 78.28125 -120.5625 76.0625 -118.75 74.375 -117.25 C 72.6875 -115.75 71.78125 -115 71.65625 -115 C 64.40625 -106.613281 57.742188 -98.671875 51.671875 -91.171875 C 45.609375 -83.671875 40.328125 -75.664062 35.828125 -67.15625 C 37.453125 -68.78125 39.515625 -70.25 42.015625 -71.5625 C 44.515625 -72.875 47.519531 -73.53125 51.03125 -73.53125 C 57.65625 -73.53125 63.15625 -72.3125 67.53125 -69.875 C 71.90625 -67.4375 75.5625 -64.21875 78.5 -60.21875 C 81.445312 -56.21875 84.015625 -51.773438 86.203125 -46.890625 C 88.390625 -42.015625 90.546875 -37.140625 92.671875 -32.265625 C 95.171875 -26.765625 97.640625 -21.664062 100.078125 -16.96875 C 102.515625 -12.28125 105.296875 -8.53125 108.421875 -5.71875 C 111.554688 -2.90625 115.3125 -1.5 119.6875 -1.5 L 119.6875 0 C 109.925781 0 102.203125 -1.3125 96.515625 -3.9375 C 90.828125 -6.5625 86.515625 -10 83.578125 -14.25 C 80.640625 -18.507812 78.570312 -23.203125 77.375 -28.328125 C 76.1875 -33.453125 75.21875 -38.578125 74.46875 -43.703125 C 73.71875 -48.835938 72.6875 -53.53125 71.375 -57.78125 C 70.0625 -62.03125 67.875 -65.46875 64.8125 -68.09375 C 61.75 -70.71875 57.15625 -72.03125 51.03125 -72.03125 Z M 51.03125 -72.03125"/></g></g></g><g fill-opacity="1" fill="#ffffff"><g transform="translate(245.739888, 233.999985)"><g><path d="M 99.421875 -121.9375 L 67.15625 -59.65625 L 67.15625 0 L 52.34375 0 L 52.34375 -55.71875 L 6.5625 -132.625 L 23.453125 -132.625 L 52.34375 -84.046875 L 66.21875 -60.96875 L 97.171875 -121 C 98.546875 -123.625 98.953125 -125.75 98.390625 -127.375 C 97.828125 -129 96.859375 -130.25 95.484375 -131.125 C 94.109375 -132 92.796875 -132.5 91.546875 -132.625 L 112.75 -132.625 C 111.125 -132.5 109.367188 -131.78125 107.484375 -130.46875 C 105.609375 -129.15625 103.921875 -127.6875 102.421875 -126.0625 C 100.921875 -124.4375 99.921875 -123.0625 99.421875 -121.9375 Z M 99.421875 -121.9375"/></g></g></g></svg>